# xmcd
#
# Track frame offsets:
#	182
#	11800
#	23715
#	34350
#	46747
#	58510
#	71700
#	86400
#	100062
#	110855
#	132647
#	144625
#	156370
#	169815
#	184922
#	197205
#	211117
#	224862
#	238510
#	249642
#
# Disc length: 3562 seconds
#
# Revision: 0
# Processed by: cddbd v1.5.2PL0 Copyright (c) Steve Scherf et al.
# Submitted via: SynApp - FreeCDDB Version: 2.2
#
DISCID=320de814
DTITLE=Tom Astor - Meine schönsten Trucker Songs
DYEAR=1989
DGENRE=Deutsch
TTITLE0=Freunde
TTITLE1=Wer verliert, Gewinnt irgendwann
TTITLE2=Irgendwo
TTITLE3=Du bist mein bester Freund
TTITLE4=Ich brauch' eine kleine Dosis Freiheit
TTITLE5=Partner fahr rechts
TTITLE6=Und Nachts wenn alles schlief
TTITLE7=Sie ist wie ein neues Leben
TTITLE8=Ja, das sind Stunden
TTITLE9=Kameraden der Strasse
TTITLE10=Hallo, guten Morgen Freunde
TTITLE11=Ein unbekannter Stuntman
TTITLE12=Alter Freund, überhol dich nicht selber
TTITLE13=Sonntagmorgen
TTITLE14=Trucker sind Partner
TTITLE15=International Airport
TTITLE16=Krawattentrucker Erwin
TTITLE17=Der kleine Trucker
TTITLE18=Panamerican Highway
TTITLE19=Mein Freund Charly
EXTD=
EXTT0=
EXTT1=
EXTT2=
EXTT3=
EXTT4=
EXTT5=
EXTT6=
EXTT7=
EXTT8=
EXTT9=
EXTT10=
EXTT11=
EXTT12=
EXTT13=
EXTT14=
EXTT15=
EXTT16=
EXTT17=
EXTT18=
EXTT19=
PLAYORDER=
